<svg xmlns="http://www.w3.org/2000/svg" viewBox="0 0 288 87"><defs><style>.cls-1{fill:#5d8f75;}.cls-2{fill:none;stroke:#5d8f75;stroke-linecap:round;stroke-miterlimit:10;stroke-width:8px;}</style></defs><g id="Capa_2" data-name="Capa 2"><g id="Capa_1-2" data-name="Capa 1"><g id="Capa_1-3" data-name="Capa 1"><path class="cls-1" d="M0,61.88V19.48a1,1,0,0,1,1-1H16.89c7.75,0,12.32,5.08,12.32,11.43a10.11,10.11,0,0,1-5.53,9.21,11.12,11.12,0,0,1,8.51,11.11c0,7.56-5.2,12.7-16,12.7H1a1,1,0,0,1-1-1ZM14.45,35.67c2.73,0,4.39-1,4.39-3.88s-1.66-3.7-4.39-3.7H10.82v7.58Zm1,17.61c3.18,0,5.47-1.34,5.47-4.65s-2.29-4.51-5.47-4.51H10.82v9.16Z"/><path class="cls-1" d="M139.82,61.89V19.48a1,1,0,0,1,1-1h9.08a1,1,0,0,1,1,1V61.89a1,1,0,0,1-1,1h-9.08a1,1,0,0,1-1-1Z"/><path class="cls-1" d="M156.87,61.89V19.48a1,1,0,0,1,1-1h9a1,1,0,0,1,1,1V53.12h12.39a.9.9,0,0,1,.95,1V62a1,1,0,0,1-.95.95H157.88a1,1,0,0,1-1-1Z"/><path class="cls-1" d="M187.11,62V19.48a1,1,0,0,1,1-1h9a1,1,0,0,1,1,1V61.89a1,1,0,0,1-1,1h-9.08A1,1,0,0,1,187.11,62Z"/><path class="cls-1" d="M203.65,61.83l14.6-42.61a1.26,1.26,0,0,1,1.21-.76h9.59a1.33,1.33,0,0,1,1.27.76l14.6,42.61c.25.63-.13,1.08-.82,1.08h-9.49a1.08,1.08,0,0,1-1.14-.76l-1.65-5.32H216.69L215,62.15a1,1,0,0,1-1.08.76h-9.49c-.69,0-1.08-.45-.82-1.08ZM228.79,47l-4.51-14.53L219.72,47Z"/><path class="cls-1" d="M95.41,34h0A29.14,29.14,0,0,1,85.16,23.72h0A16.9,16.9,0,1,0,62,46.86h0A28.82,28.82,0,0,1,72.27,57.13v0A16.89,16.89,0,1,0,95.41,34ZM85.94,55.2a6.55,6.55,0,0,1-6.51-5.74h0a11.58,11.58,0,0,0-9.64-10h0a6.56,6.56,0,1,1,7.55-7.29h0a11.58,11.58,0,0,0,9.64,10h0a6.56,6.56,0,0,1-1,13Z"/><path class="cls-1" d="M37.5,61.72V19.24a1,1,0,0,1,1-1h9a1,1,0,0,1,1,1V61.66a1,1,0,0,1-1,1H38.45A1,1,0,0,1,37.5,61.72Z"/><path class="cls-1" d="M109,61.65V19.24a1,1,0,0,1,1-1H133a1,1,0,0,1,1,1V27a1,1,0,0,1-1,1H120v7.11h12.09a1,1,0,0,1,1,1v7.76a1,1,0,0,1-1,1H120V61.66a1,1,0,0,1-1,1h-9a1,1,0,0,1-1-1Z"/></g><line class="cls-2" x1="284" y1="4" x2="284" y2="83"/></g></g></svg>